<svg version="1.1" xmlns="http://www.w3.org/2000/svg" viewBox="-2144.831881119369 -961.5360595703125 19053.119695450427 2138.1416107177733"><desc>Created with Snap</desc><defs/><g><g transform="matrix(6.5963,0,0,6.5963,-2147.6572,-990.7465)">
<g>
	<g>
		<path fill-rule="evenodd" clip-rule="evenodd" d="M47,205h77v-64h38v64h39c-26,26-51,51-77,77v-39H47V205z" style="" fill="#195190"/>
		<path fill-rule="evenodd" clip-rule="evenodd" d="M286,129h-76v64h-39v-64h-39c26-26,52-52,78-78v39h76V129z" style="" fill="#195190"/>
	</g>
</g>
<desc>Created with Snap</desc><defs/></g><g><g transform="matrix(1.024,0,0,-1.024,0,0)"><path d="M355 639Q410 639 454 631Q499 623 537 603L515 531Q478 548 442 556Q407 564 366 564Q322 564 282 551Q242 538 211 508Q181 479 163 431Q145 384 145 314Q145 193 200 130Q255 67 355 67Q393 67 420 71Q448 75 474 85L474 260L355 260L355 332L560 332L560 28Q520 12 471 1Q422 -9 355 -9Q290 -9 233 12Q177 33 135 74Q93 115 69 175Q45 235 45 314Q45 393 68 454Q92 515 133 556Q174 597 231 618Q288 639 355 639ZM698 0L698 630L1078 630L1078 554L790 554L790 365L1052 365L1052 290L790 290L790 76L1081 76L1081 0L698 0ZM1376 639Q1422 639 1465 631Q1508 624 1550 604L1528 528Q1485 548 1450 556Q1416 565 1380 565Q1323 565 1290 540Q1257 515 1257 470Q1257 432 1281 409Q1306 386 1362 369L1425 349Q1511 322 1546 275Q1582 229 1582 171Q1582 130 1565 96Q1549 63 1519 39Q1490 16 1450 3Q1410 -9 1362 -9Q1314 -9 1264 -1Q1215 8 1166 31L1188 106Q1231 85 1272 75Q1313 65 1358 65Q1412 65 1450 90Q1488 115 1488 164Q1488 182 1482 197Q1477 213 1463 227Q1450 241 1427 253Q1404 265 1369 276L1306 296Q1237 318 1200 356Q1163 394 1163 459Q1163 542 1217 590Q1272 639 1376 639ZM1634 630L2116 630L2116 552L1919 552L1919 0L1827 0L1827 552L1634 552L1634 630ZM2205 630L2297 630L2297 0L2205 0L2205 630ZM2456 630L2826 630L2826 554L2548 554L2548 350L2804 350L2804 275L2548 275L2548 0L2456 0L2456 630ZM2863 0L3117 630L3199 630L3450 0L3354 0L3285 175L3026 175L2958 0L2863 0ZM3094 357L3051 248L3258 248L3216 357Q3199 400 3185 440Q3171 480 3157 522L3155 522Q3141 480 3126 441Q3111 402 3094 357ZM3806 67Q3856 67 3888 75Q3921 83 3953 98L3974 24Q3939 7 3897 -1Q3856 -9 3796 -9Q3734 -9 3679 12Q3624 33 3583 74Q3543 115 3519 175Q3496 236 3496 315Q3496 392 3519 452Q3542 513 3582 554Q3623 596 3679 617Q3735 639 3801 639Q3863 639 3903 629Q3943 619 3977 602L3955 530Q3936 538 3919 544Q3903 551 3886 555Q3870 559 3852 561Q3835 563 3813 563Q3769 563 3729 549Q3690 536 3660 506Q3631 476 3613 428Q3596 381 3596 314Q3596 246 3613 199Q3630 152 3658 123Q3687 94 3725 80Q3763 67 3806 67ZM4090 630L4182 630L4182 0L4090 0L4090 630ZM4341 0L4341 630L4433 630L4433 78L4702 78L4702 0L4341 0Z" style="" fill="#195190"/></g></g><g transform="matrix(0.75,0,0,0.75,19.968,861.696)"><g transform="matrix(1.024,0,0,-1.024,0,0)"><path d="M302 0Q288 0 279 9Q271 18 271 30L271 667L333 667L333 30Q333 18 324 9Q315 0 302 0ZM540 643L64 643Q52 643 43 651Q34 659 34 672Q34 684 43 692Q52 700 64 700L540 700Q552 700 561 692Q570 684 570 671Q570 658 561 650Q552 643 540 643ZM1193 700Q1207 700 1215 691Q1223 683 1223 670L1223 256Q1223 182 1188 122Q1153 62 1094 26Q1035 -9 961 -9Q887 -9 827 26Q768 62 733 122Q698 182 698 256L698 670Q698 683 706 691Q715 700 730 700Q742 700 751 691Q760 683 760 670L760 256Q760 198 787 152Q815 106 861 78Q907 51 961 51Q1017 51 1063 78Q1109 106 1136 152Q1164 198 1164 256L1164 670Q1164 683 1172 691Q1180 700 1193 700ZM1714 700L1951 700Q2007 700 2050 674Q2093 649 2118 604Q2143 559 2143 501Q2143 443 2118 396Q2093 350 2050 323Q2007 296 1951 296L1739 296L1744 306L1744 30Q1744 18 1735 9Q1726 0 1714 0Q1700 0 1692 9Q1684 18 1684 30L1684 670Q1684 682 1693 691Q1702 700 1714 700ZM1738 354L1951 354Q1990 354 2019 373Q2048 393 2064 426Q2081 460 2081 501Q2081 542 2064 573Q2048 605 2019 623Q1990 641 1951 641L1739 641L1744 650L1744 348L1738 354ZM2314 0Q2299 0 2289 9Q2280 18 2280 30L2280 670Q2280 682 2289 691Q2298 700 2310 700L2580 700Q2637 700 2682 675Q2727 651 2752 608Q2778 565 2778 511Q2778 467 2762 430Q2746 393 2717 367Q2688 342 2652 330L2617 341Q2654 338 2686 317Q2718 297 2737 261Q2757 226 2758 176Q2759 133 2762 109Q2766 85 2773 73Q2780 61 2791 54Q2801 48 2804 37Q2808 26 2802 16Q2798 8 2790 4Q2783 1 2775 1Q2767 1 2759 5Q2745 13 2730 30Q2716 47 2706 80Q2697 113 2697 172Q2697 211 2684 236Q2672 261 2652 274Q2633 288 2609 293Q2586 299 2565 299L2332 299L2343 313L2343 30Q2343 18 2335 9Q2327 0 2314 0ZM2343 340L2332 354L2583 354Q2617 357 2647 376Q2677 396 2695 430Q2714 464 2714 509Q2714 566 2675 603Q2637 641 2575 641L2336 641L2343 655L2343 340ZM3574 350Q3574 271 3549 205Q3525 140 3480 91Q3435 43 3373 16Q3312 -10 3239 -10Q3166 -10 3104 16Q3043 43 2998 91Q2953 140 2928 205Q2904 271 2904 350Q2904 429 2928 494Q2953 560 2998 608Q3043 657 3104 683Q3166 710 3239 710Q3312 710 3373 683Q3435 657 3480 608Q3525 560 3549 494Q3574 429 3574 350ZM3510 350Q3510 439 3475 506Q3441 574 3380 612Q3319 650 3239 650Q3160 650 3098 612Q3037 574 3002 506Q2968 439 2968 350Q2968 261 3002 193Q3037 126 3098 88Q3160 50 3239 50Q3319 50 3380 88Q3441 126 3475 193Q3510 261 3510 350ZM4030 -10Q3953 -10 3887 17Q3821 44 3772 92Q3724 141 3697 207Q3670 273 3670 350Q3670 427 3697 493Q3724 559 3772 607Q3821 656 3887 683Q3953 710 4030 710Q4083 710 4132 697Q4182 685 4221 660Q4228 655 4231 648Q4235 642 4235 635Q4235 621 4226 612Q4217 604 4207 604Q4202 604 4197 605Q4193 607 4189 609Q4155 628 4115 639Q4075 650 4030 650Q3944 650 3877 611Q3810 572 3772 504Q3734 436 3734 350Q3734 264 3772 196Q3810 128 3877 89Q3944 50 4030 50Q4075 50 4120 63Q4166 76 4199 98L4194 77L4194 307L4209 293L4036 293Q4023 293 4014 302Q4005 311 4005 323Q4005 337 4014 345Q4023 353 4036 353L4227 353Q4240 353 4248 344Q4257 336 4257 323L4257 82Q4257 74 4253 67Q4249 60 4242 55Q4198 25 4143 7Q4089 -10 4030 -10ZM4445 0Q4430 0 4420 9Q4411 18 4411 30L4411 670Q4411 682 4420 691Q4429 700 4441 700L4711 700Q4768 700 4813 675Q4858 651 4883 608Q4909 565 4909 511Q4909 467 4893 430Q4877 393 4848 367Q4819 342 4783 330L4748 341Q4785 338 4817 317Q4849 297 4868 261Q4888 226 4889 176Q4890 133 4893 109Q4897 85 4904 73Q4911 61 4922 54Q4932 48 4935 37Q4939 26 4933 16Q4929 8 4921 4Q4914 1 4906 1Q4898 1 4890 5Q4876 13 4861 30Q4847 47 4837 80Q4828 113 4828 172Q4828 211 4815 236Q4803 261 4783 274Q4764 288 4740 293Q4717 299 4696 299L4463 299L4474 313L4474 30Q4474 18 4466 9Q4458 0 4445 0ZM4474 340L4463 354L4714 354Q4748 357 4778 376Q4808 396 4826 430Q4845 464 4845 509Q4845 566 4806 603Q4768 641 4706 641L4467 641L4474 655L4474 340ZM5297 627L5315 623L5072 19Q5068 9 5061 4Q5054 -1 5045 -1Q5031 -1 5024 6Q5017 14 5016 25Q5015 30 5017 37L5281 683Q5286 694 5293 698Q5301 703 5311 703Q5321 703 5328 697Q5336 692 5340 683L5603 40Q5605 34 5605 28Q5605 14 5596 6Q5587 -1 5575 -1Q5565 -1 5557 4Q5550 10 5546 19L5297 627ZM5477 202L5130 202L5155 261L5465 261L5477 202ZM5758 700Q5765 700 5772 697Q5780 694 5785 687L6061 273L6034 274L6311 687Q6322 702 6338 700Q6350 700 6358 691Q6367 683 6367 670L6367 30Q6367 18 6358 9Q6349 0 6336 0Q6322 0 6313 9Q6304 18 6304 30L6304 609L6322 607L6069 224Q6066 218 6060 214Q6054 211 6046 212Q6039 211 6032 214Q6026 218 6022 224L5768 611L5787 624L5787 30Q5787 18 5778 9Q5770 0 5757 0Q5744 0 5736 9Q5728 18 5728 30L5728 670Q5728 682 5736 691Q5745 700 5758 700ZM6771 627L6789 623L6546 19Q6542 9 6535 4Q6528 -1 6519 -1Q6505 -1 6498 6Q6491 14 6490 25Q6489 30 6491 37L6755 683Q6760 694 6767 698Q6775 703 6785 703Q6795 703 6802 697Q6810 692 6814 683L7077 40Q7079 34 7079 28Q7079 14 7070 6Q7061 -1 7049 -1Q7039 -1 7031 4Q7024 10 7020 19L6771 627ZM6951 202L6604 202L6629 261L6939 261L6951 202ZM7505 700L7760 700Q7834 700 7889 672Q7945 644 7981 594Q8017 545 8034 482Q8052 419 8052 350Q8052 254 8020 174Q7989 95 7924 47Q7860 0 7760 0L7505 0Q7493 0 7484 9Q7475 18 7475 30L7475 670Q7475 682 7484 691Q7493 700 7505 700ZM7532 59L7750 59Q7835 59 7887 98Q7939 137 7963 203Q7988 270 7988 350Q7988 408 7974 460Q7961 513 7932 553Q7904 594 7858 617Q7813 641 7750 641L7531 641L7538 650L7538 49L7532 59ZM8224 700L8591 700Q8603 700 8612 691Q8621 683 8621 670Q8621 657 8612 649Q8603 641 8591 641L8247 641L8257 658L8257 377L8246 390L8546 390Q8558 390 8567 381Q8576 372 8576 360Q8576 347 8567 339Q8558 331 8546 331L8248 331L8257 341L8257 53L8252 59L8591 59Q8603 59 8612 50Q8621 41 8621 29Q8621 16 8612 8Q8603 0 8591 0L8224 0Q8212 0 8203 9Q8194 18 8194 30L8194 670Q8194 682 8203 691Q8212 700 8224 700ZM9541 701Q9555 701 9563 693Q9572 685 9572 673Q9572 666 9569 658L9302 20Q9297 10 9289 5Q9281 0 9273 0Q9264 0 9256 5Q9248 10 9245 19L8979 656Q8978 659 8977 663Q8976 667 8976 672Q8976 685 8985 693Q8995 701 9005 701Q9026 701 9035 679L9285 81L9267 81L9513 681Q9523 701 9541 701ZM9730 700L10097 700Q10109 700 10118 691Q10127 683 10127 670Q10127 657 10118 649Q10109 641 10097 641L9753 641L9763 658L9763 377L9752 390L10052 390Q10064 390 10073 381Q10082 372 10082 360Q10082 347 10073 339Q10064 331 10052 331L9754 331L9763 341L9763 53L9758 59L10097 59Q10109 59 10118 50Q10127 41 10127 29Q10127 16 10118 8Q10109 0 10097 0L9730 0Q9718 0 9709 9Q9700 18 9700 30L9700 670Q9700 682 9709 691Q9718 700 9730 700ZM10780 700Q10793 700 10800 692Q10808 684 10808 672L10808 32Q10808 17 10798 8Q10789 0 10777 0Q10771 0 10764 2Q10757 5 10753 10L10307 611L10324 620L10324 27Q10324 16 10316 8Q10308 0 10296 0Q10283 0 10275 8Q10268 16 10268 27L10268 670Q10268 685 10277 692Q10286 700 10297 700Q10303 700 10310 697Q10317 695 10321 689L10762 95L10752 77L10752 672Q10752 684 10760 692Q10769 700 10780 700ZM11204 0Q11190 0 11181 9Q11173 18 11173 30L11173 667L11235 667L11235 30Q11235 18 11226 9Q11217 0 11204 0ZM11442 643L10966 643Q10954 643 10945 651Q10936 659 10936 672Q10936 684 10945 692Q10954 700 10966 700L11442 700Q11454 700 11463 692Q11472 684 11472 671Q11472 658 11463 650Q11454 643 11442 643ZM11816 627L11834 623L11591 19Q11587 9 11580 4Q11573 -1 11564 -1Q11550 -1 11543 6Q11536 14 11535 25Q11534 30 11536 37L11800 683Q11805 694 11812 698Q11820 703 11830 703Q11840 703 11847 697Q11855 692 11859 683L12122 40Q12124 34 12124 28Q12124 14 12115 6Q12106 -1 12094 -1Q12084 -1 12076 4Q12069 10 12065 19L11816 627ZM11996 202L11649 202L11674 261L11984 261L11996 202ZM12440 -10Q12364 -11 12308 14Q12252 39 12201 89Q12196 93 12192 99Q12189 105 12189 113Q12189 125 12198 135Q12208 145 12220 145Q12232 145 12242 135Q12281 93 12330 71Q12380 49 12437 49Q12485 49 12522 64Q12560 79 12582 107Q12604 135 12604 172Q12604 218 12579 246Q12554 275 12513 293Q12472 312 12422 327Q12381 339 12344 354Q12307 370 12278 392Q12249 415 12233 448Q12217 481 12217 528Q12217 581 12245 622Q12273 663 12324 686Q12376 710 12444 710Q12503 710 12557 690Q12612 670 12644 631Q12659 615 12659 602Q12659 592 12649 582Q12639 572 12627 572Q12617 572 12610 579Q12593 600 12567 616Q12541 633 12509 642Q12478 651 12444 651Q12397 651 12359 636Q12322 622 12300 595Q12279 568 12279 530Q12279 488 12303 461Q12327 434 12366 416Q12405 399 12449 384Q12492 372 12531 356Q12571 341 12601 318Q12632 295 12649 260Q12667 225 12667 172Q12667 121 12638 80Q12609 39 12558 15Q12508 -9 12440 -10ZM13112 700L13349 700Q13405 700 13448 674Q13491 649 13516 604Q13541 559 13541 501Q13541 443 13516 396Q13491 350 13448 323Q13405 296 13349 296L13137 296L13142 306L13142 30Q13142 18 13133 9Q13124 0 13112 0Q13098 0 13090 9Q13082 18 13082 30L13082 670Q13082 682 13091 691Q13100 700 13112 700ZM13136 354L13349 354Q13388 354 13417 373Q13446 393 13462 426Q13479 460 13479 501Q13479 542 13462 573Q13446 605 13417 623Q13388 641 13349 641L13137 641L13142 650L13142 348L13136 354ZM13894 627L13912 623L13669 19Q13665 9 13658 4Q13651 -1 13642 -1Q13628 -1 13621 6Q13614 14 13613 25Q13612 30 13614 37L13878 683Q13883 694 13890 698Q13898 703 13908 703Q13918 703 13925 697Q13933 692 13937 683L14200 40Q14202 34 14202 28Q14202 14 14193 6Q14184 -1 14172 -1Q14162 -1 14154 4Q14147 10 14143 19L13894 627ZM14074 202L13727 202L13752 261L14062 261L14074 202ZM14359 0Q14344 0 14334 9Q14325 18 14325 30L14325 670Q14325 682 14334 691Q14343 700 14355 700L14625 700Q14682 700 14727 675Q14772 651 14797 608Q14823 565 14823 511Q14823 467 14807 430Q14791 393 14762 367Q14733 342 14697 330L14662 341Q14699 338 14731 317Q14763 297 14782 261Q14802 226 14803 176Q14804 133 14807 109Q14811 85 14818 73Q14825 61 14836 54Q14846 48 14849 37Q14853 26 14847 16Q14843 8 14835 4Q14828 1 14820 1Q14812 1 14804 5Q14790 13 14775 30Q14761 47 14751 80Q14742 113 14742 172Q14742 211 14729 236Q14717 261 14697 274Q14678 288 14654 293Q14631 299 14610 299L14377 299L14388 313L14388 30Q14388 18 14380 9Q14372 0 14359 0ZM14388 340L14377 354L14628 354Q14662 357 14692 376Q14722 396 14740 430Q14759 464 14759 509Q14759 566 14720 603Q14682 641 14620 641L14381 641L14388 655L14388 340ZM15211 627L15229 623L14986 19Q14982 9 14975 4Q14968 -1 14959 -1Q14945 -1 14938 6Q14931 14 14930 25Q14929 30 14931 37L15195 683Q15200 694 15207 698Q15215 703 15225 703Q15235 703 15242 697Q15250 692 15254 683L15517 40Q15519 34 15519 28Q15519 14 15510 6Q15501 -1 15489 -1Q15479 -1 15471 4Q15464 10 15460 19L15211 627ZM15391 202L15044 202L15069 261L15379 261L15391 202ZM15945 700L16312 700Q16324 700 16333 691Q16342 683 16342 670Q16342 657 16333 649Q16324 641 16312 641L15968 641L15978 658L15978 377L15967 390L16267 390Q16279 390 16288 381Q16297 372 16297 360Q16297 347 16288 339Q16279 331 16267 331L15969 331L15978 341L15978 53L15973 59L16312 59Q16324 59 16333 50Q16342 41 16342 29Q16342 16 16333 8Q16324 0 16312 0L15945 0Q15933 0 15924 9Q15915 18 15915 30L15915 670Q15915 682 15924 691Q15933 700 15945 700ZM16527 59L16870 59Q16882 59 16891 50Q16900 42 16900 30Q16900 17 16891 8Q16882 0 16870 0L16513 0Q16500 0 16491 9Q16483 18 16483 30L16483 670Q16483 682 16492 691Q16501 700 16515 700Q16527 700 16536 691Q16546 682 16546 670L16546 42L16527 59ZM17318 700L17573 700Q17647 700 17702 672Q17758 644 17794 594Q17830 545 17847 482Q17865 419 17865 350Q17865 254 17833 174Q17802 95 17737 47Q17673 0 17573 0L17318 0Q17306 0 17297 9Q17288 18 17288 30L17288 670Q17288 682 17297 691Q17306 700 17318 700ZM17345 59L17563 59Q17648 59 17700 98Q17752 137 17776 203Q17801 270 17801 350Q17801 408 17787 460Q17774 513 17745 553Q17717 594 17671 617Q17626 641 17563 641L17344 641L17351 650L17351 49L17345 59ZM18070 669L18070 31Q18069 18 18059 9Q18050 0 18038 0Q18024 0 18015 9Q18007 18 18007 31L18007 669Q18007 682 18016 691Q18025 700 18039 700Q18051 700 18060 691Q18070 682 18070 669ZM18473 627L18491 623L18248 19Q18244 9 18237 4Q18230 -1 18221 -1Q18207 -1 18200 6Q18193 14 18192 25Q18191 30 18193 37L18457 683Q18462 694 18469 698Q18477 703 18487 703Q18497 703 18504 697Q18512 692 18516 683L18779 40Q18781 34 18781 28Q18781 14 18772 6Q18763 -1 18751 -1Q18741 -1 18733 4Q18726 10 18722 19L18473 627ZM18653 202L18306 202L18331 261L18641 261L18653 202ZM19393 627L19411 623L19168 19Q19164 9 19157 4Q19150 -1 19141 -1Q19127 -1 19120 6Q19113 14 19112 25Q19111 30 19113 37L19377 683Q19382 694 19389 698Q19397 703 19407 703Q19417 703 19424 697Q19432 692 19436 683L19699 40Q19701 34 19701 28Q19701 14 19692 6Q19683 -1 19671 -1Q19661 -1 19653 4Q19646 10 19642 19L19393 627ZM19573 202L19226 202L19251 261L19561 261L19573 202ZM20127 700L20382 700Q20456 700 20511 672Q20567 644 20603 594Q20639 545 20656 482Q20674 419 20674 350Q20674 254 20642 174Q20611 95 20546 47Q20482 0 20382 0L20127 0Q20115 0 20106 9Q20097 18 20097 30L20097 670Q20097 682 20106 691Q20115 700 20127 700ZM20154 59L20372 59Q20457 59 20509 98Q20561 137 20585 203Q20610 270 20610 350Q20610 408 20596 460Q20583 513 20554 553Q20526 594 20480 617Q20435 641 20372 641L20153 641L20160 650L20160 49L20154 59ZM20879 669L20879 31Q20878 18 20868 9Q20859 0 20847 0Q20833 0 20824 9Q20816 18 20816 31L20816 669Q20816 682 20825 691Q20834 700 20848 700Q20860 700 20869 691Q20879 682 20879 669ZM21282 627L21300 623L21057 19Q21053 9 21046 4Q21039 -1 21030 -1Q21016 -1 21009 6Q21002 14 21001 25Q21000 30 21002 37L21266 683Q21271 694 21278 698Q21286 703 21296 703Q21306 703 21313 697Q21321 692 21325 683L21588 40Q21590 34 21590 28Q21590 14 21581 6Q21572 -1 21560 -1Q21550 -1 21542 4Q21535 10 21531 19L21282 627ZM21462 202L21115 202L21140 261L21450 261L21462 202Z" style="" fill="#195190"/></g></g></g></svg>